<svg width="359" height="199" viewBox="0 0 359 199" fill="none" xmlns="http://www.w3.org/2000/svg">
<path d="M362.806 168.1C358.447 171.491 351.523 173.056 346.651 169.143C340.497 163.927 342.804 152.711 350.497 148.537C350.754 148.537 350.497 147.494 350.497 147.494C345.112 145.668 339.471 148.016 334.855 145.407C332.291 143.842 334.855 138.625 333.06 137.321C329.214 133.93 323.572 132.626 318.7 130.8C315.879 129.757 312.289 130.018 310.494 133.148C306.648 140.19 305.879 149.059 299.212 153.232C296.391 155.058 292.032 154.537 287.929 152.971C284.339 151.928 281.005 153.754 280.749 157.667C280.492 162.101 281.518 166.796 280.236 170.969C280.236 171.491 277.928 171.491 276.646 170.969C273.312 169.404 271.004 165.231 267.158 167.318C264.85 168.622 263.055 170.709 261.26 172.795C260.234 173.839 260.491 174.882 259.978 176.186C259.67 176.969 259.388 177.777 259.132 178.612C275.082 203.392 298.468 238.266 298.468 238.266H364.088V166.926C363.703 167.344 363.267 167.735 362.806 168.1Z" fill="#273838"/>
<path d="M211.272 29.6681V0.767187C193.424 1.5497 185.834 12.5049 185.834 12.5049V0.506348C185.834 0.506348 181.936 8.59235 163.217 8.59235C148.626 8.59235 147.6 23.1993 147.857 29.616C142.651 31.6505 138.933 36.789 138.933 42.8144V79.4101H147.267V57.3692C147.267 50.0397 153.113 44.1186 160.293 44.1186H198.655C205.861 44.1186 211.682 50.0657 211.682 57.3692V79.4101H220.016V42.8144C220.041 36.8412 216.426 31.7549 211.272 29.6681Z" fill="#5B7E7E"/>
<path d="M211.272 14.4875V2.22803C208.579 8.33166 205.322 14.1223 200.271 18.7652C193.091 25.547 183.346 26.8512 174.371 30.503C168.422 32.9549 165.832 38.1977 164.832 44.1188H181.705C195.193 39.3454 205.451 27.8163 211.272 14.4875Z" fill="#5B7E7E"/>
<path d="M211.272 14.4873C205.451 27.8162 195.193 39.3453 181.705 44.1186H198.655C199.501 44.1186 200.296 44.1969 201.091 44.3534C205.579 40.3625 209.297 35.2762 211.425 29.7464C211.374 29.7203 211.323 29.6942 211.272 29.6681V14.4873Z" fill="#273535"/>
<path d="M211.707 57.3692V79.4101H220.041V50.77C217.323 52.335 214.374 53.561 211.4 54.4739C211.605 55.4129 211.707 56.378 211.707 57.3692Z" fill="#273535"/>
<path d="M211.451 29.7466C209.323 35.2764 205.63 40.3627 201.117 44.3535C206.22 45.3447 210.271 49.3356 211.4 54.4741C214.4 53.5612 217.323 52.3352 220.041 50.7702V42.8146C220.041 36.9196 216.477 31.8594 211.451 29.7466Z" fill="#5B7E7E"/>
<path d="M155.96 44.8752C152.139 41.1452 149.113 36.7109 147.703 31.8072C147.498 31.1551 147.344 30.5291 147.241 29.877C142.369 32.068 138.959 37.0239 138.959 42.8146V46.675C141.574 49.4138 144.6 51.7352 147.882 53.4307C149.088 49.4399 152.113 46.2837 155.96 44.8752Z" fill="#273535"/>
<path d="M138.959 46.6753V79.4105H147.293V57.3697C147.293 55.9872 147.498 54.683 147.882 53.431C144.6 51.7356 141.574 49.4141 138.959 46.6753Z" fill="#5B7E7E"/>
<path d="M183.859 15.3742C184.757 14.4612 185.526 13.3657 186.09 12.1919C185.936 12.4006 185.859 12.5049 185.859 12.5049V0.506348C185.859 0.506348 181.962 8.59236 163.242 8.59236C148.652 8.59236 147.626 23.1993 147.882 29.616C147.677 29.6942 147.472 29.7986 147.241 29.8768C147.369 30.5028 147.523 31.1549 147.703 31.807C149.113 36.7369 152.139 41.1711 155.96 44.8751C157.319 44.3795 158.806 44.1186 160.345 44.1186H162.294C162.755 39.4757 163.96 34.9371 166.191 30.7637C170.269 23.1993 178.474 21.3735 183.859 15.3742Z" fill="#5B7E7E"/>
<path d="M211.272 2.25387V0.76709C195.219 1.47135 187.475 10.392 186.09 12.1918C185.526 13.3656 184.782 14.4611 183.859 15.3741C178.474 21.3734 170.269 23.1992 166.166 30.7636C163.935 34.937 162.755 39.4756 162.268 44.1185H164.832C165.832 38.1975 168.397 32.9546 174.371 30.5027C183.346 26.851 193.091 25.5468 200.271 18.765C205.322 14.122 208.579 8.33141 211.272 2.25387Z" fill="#273535"/>
<path d="M134.112 76.645V88.4089C134.112 95.7906 139.984 101.764 147.241 101.764V78.5752C142.933 77.3493 138.497 76.5668 134.112 76.645Z" fill="#FFD1B3"/>
<path d="M224.76 76.645V88.4089C224.76 95.7906 218.887 101.764 211.631 101.764V78.5752C215.964 77.3493 220.375 76.5668 224.76 76.645Z" fill="#FFD1B3"/>
<path d="M180.91 175.451V140.107L156.037 129.309L148.472 145.95C150.626 152.575 153.524 158.914 158.011 164C163.884 170.313 172.192 173.599 180.91 175.451Z" fill="#FFAEB3"/>
<path d="M158.011 164.001C153.549 158.914 150.626 152.576 148.472 145.951L141.01 162.384L136.01 162.931C139.369 170.078 144.215 176.599 150.318 181.555C159.524 189.25 169.91 195.014 180.91 199.084V175.452C172.192 173.6 163.884 170.313 158.011 164.001Z" fill="#FFD1B3"/>
<path d="M136.01 162.957L63.2353 171.069L99.8789 125.918L84.006 91.3564L0 164.548L0 241L63.0045 232.549L65.5944 241H180.91V199.083C169.884 195.04 159.524 189.275 150.318 181.555C144.241 176.625 139.395 170.078 136.01 162.957Z" fill="#5B7E7E"/>
<path d="M84.4419 209.386C92.2886 194.884 100.982 180.798 108.418 166.009L63.2096 171.043L99.8533 125.892L83.9804 91.3306L0 164.548L0 241L63.0045 232.549L65.5944 241H100.033C103.392 229.575 106.367 217.968 110.213 206.7C101.725 207.508 93.2118 209.673 84.4419 209.386Z" fill="#5B7E7E"/>
<path d="M180.91 199.083C169.884 195.04 159.524 189.275 150.318 181.555C144.241 176.599 139.395 170.078 136.01 162.931L108.418 166.009C100.956 180.798 92.2886 194.883 84.4419 209.386C93.2118 209.647 101.7 207.508 110.213 206.673C106.367 217.942 103.392 229.575 100.033 240.974H180.91V199.083Z" fill="#273535"/>
<path d="M98.5199 102.677C95.3914 102.808 92.981 104.373 91.0065 106.564L99.8789 125.892L109.828 117.154L123.778 101.764L125.188 81.5493C124.24 84.2099 123.906 87.1052 123.47 90.2613C121.624 101.06 108.085 102.156 98.5199 102.677Z" fill="#FFAEB3"/>
<path d="M124.855 86.3488L147.241 77.8193V88.1225L123.778 101.764L124.855 86.3488Z" fill="#FFAEB3"/>
<path d="M148.6 145.716L131.676 140.655L123.778 164.313L147.344 241H136.933L101.469 216.038L107.444 184.033L84.006 187.659L131.676 125.918L154.037 133.743L148.6 145.716Z" fill="#5B7E7E"/>
<path d="M130.496 163.557L123.778 164.314L147.344 241H180.91V213.299C171.653 208.734 162.781 203.674 155.396 196.136C145.934 186.511 134.01 176.703 130.496 163.557Z" fill="white"/>
<path d="M150.318 181.581C144.241 176.625 139.395 170.104 136.01 162.957L130.496 163.583C134.01 176.729 145.934 186.537 155.396 196.162C162.781 203.674 171.653 208.76 180.91 213.325V199.109C169.884 195.04 159.524 189.276 150.318 181.581Z" fill="#F9DFAA"/>
<path d="M148.6 145.716L131.676 140.655L123.778 164.313L141.01 162.383L148.6 145.716Z" fill="#273535"/>
<path d="M63.2353 171.043L28.4123 223.993L84.4419 168.695L63.2353 171.043Z" fill="#273535"/>
<path d="M147.241 78.5756V68.0898H141.831C137.574 68.0898 134.138 71.5851 134.138 75.915V76.6193C138.497 76.5671 142.933 77.3496 147.241 78.5756Z" fill="#FFAEB3"/>
<path d="M177.961 175.451V140.107L202.835 129.309L210.4 145.95C208.246 152.575 205.348 158.914 200.861 164C194.988 170.313 186.706 173.599 177.961 175.451Z" fill="#FFAEB3"/>
<path d="M200.861 164.001C205.322 158.914 208.246 152.576 210.4 145.951L217.862 162.384L222.862 162.931C219.503 170.078 214.656 176.599 208.553 181.555C199.348 189.25 188.962 195.014 177.961 199.084V175.452C186.706 173.6 194.988 170.313 200.861 164.001Z" fill="#FFD1B3"/>
<path d="M222.862 162.957L295.637 171.069L258.993 125.918L274.866 91.3564L358.872 164.548V241L295.867 232.549L293.277 241H177.961V199.083C188.988 195.04 199.348 189.275 208.553 181.555C214.656 176.625 219.503 170.078 222.862 162.957Z" fill="#5B7E7E"/>
<path d="M274.43 209.386C266.583 194.883 257.89 180.798 250.454 166.009L295.662 171.043L258.993 125.918L274.866 91.3564L358.872 164.548V241L295.867 232.549L293.277 241H258.839C255.48 229.575 252.505 217.968 248.659 206.699C257.172 207.508 265.66 209.673 274.43 209.386Z" fill="#5B7E7E"/>
<path d="M177.961 199.083C188.988 195.04 199.348 189.275 208.553 181.555C214.631 176.599 219.477 170.078 222.862 162.931L250.454 166.009C257.916 180.798 266.583 194.883 274.43 209.386C265.66 209.647 257.172 207.508 248.659 206.673C252.505 217.942 255.48 229.575 258.839 240.974H177.961V199.083Z" fill="#273535"/>
<path d="M155.755 140.108L164.242 146.551C172.499 152.811 183.731 153.15 192.321 147.385L203.168 140.108L210.656 112.224C211.323 109.746 211.656 107.164 211.656 104.582V57.3698C211.656 50.0402 205.81 44.1191 198.63 44.1191H160.268C153.062 44.1191 147.241 50.0663 147.241 57.3698V103.669C147.241 106.173 147.549 108.677 148.19 111.077L155.755 140.108Z" fill="#FFD1B3"/>
<path d="M260.352 102.677C263.48 102.808 265.891 104.373 267.865 106.564L258.993 125.892L249.043 117.154L235.094 101.764L233.683 81.5493C234.632 84.2099 234.966 87.1052 235.401 90.2613C237.248 101.06 250.787 102.156 260.352 102.677Z" fill="#FFAEB3"/>
<path d="M234.017 86.3488L211.656 77.8193V88.1225L235.094 101.764L234.017 86.3488Z" fill="#FFAEB3"/>
<path d="M210.297 145.716L227.221 140.655L235.094 164.313L211.528 241H221.965L257.403 216.038L251.428 184.033L274.866 187.659L227.221 125.918L204.861 133.743L210.297 145.716Z" fill="#5B7E7E"/>
<path d="M222.862 162.957C219.503 170.104 214.656 176.625 208.553 181.581C199.348 189.276 188.962 195.04 177.961 199.109V211.838C180.577 213.169 183.244 214.447 185.911 215.725C186.68 215.986 187.706 215.464 188.475 215.725C192.834 218.072 197.194 219.377 201.809 220.42C200.784 216.246 198.476 212.073 198.219 207.9C205.092 210.951 212.066 213.847 219.169 216.168L235.094 164.313L222.862 162.957Z" fill="#F9DFAA"/>
<path d="M210.297 145.716L227.221 140.655L235.094 164.313L217.862 162.383L210.297 145.716Z" fill="#273535"/>
<path d="M295.637 171.043L330.46 223.993L274.43 168.695L295.637 171.043Z" fill="#273535"/>
<path d="M211.656 78.5756V68.0898H217.067C221.323 68.0898 224.76 71.5851 224.76 75.915V76.6193C220.375 76.5671 215.964 77.3496 211.656 78.5756Z" fill="#FFAEB3"/>
<path d="M161.294 100.669C153.37 100.669 146.934 94.1218 146.934 86.0619V77.1934H175.654V86.0619C175.654 94.1218 169.217 100.669 161.294 100.669Z" fill="#5B7E7E"/>
<path d="M197.296 100.669C189.372 100.669 182.936 94.1218 182.936 86.0619V77.1934H211.656V86.0619C211.656 94.1218 205.22 100.669 197.296 100.669Z" fill="#5B7E7E"/>
<path d="M164.627 82.4101C163.499 80.7669 162.73 78.9149 161.832 77.1934H151.601C155.755 85.0968 160.858 92.4785 165.961 99.8864C168.704 98.9212 171.064 97.1475 172.782 94.8522C170.217 90.7309 167.602 86.5836 164.627 82.4101Z" fill="#9EBEBE"/>
<path d="M195.322 77.1934H186.526C191.091 84.9924 195.476 92.7654 200.194 100.382C202.784 99.8341 205.117 98.5821 206.989 96.8345C203.22 90.2092 199.425 83.5839 195.322 77.1934Z" fill="#9EBEBE"/>
<path d="M215.862 71.9766H142.651V79.4105H215.862V71.9766Z" fill="#273535"/>
<path d="M128.599 60.9168C125.522 60.0821 122.265 60.6038 119.573 62.3253L101.238 74.0631L84.006 91.3306L91.0065 106.564C92.981 104.373 95.3914 102.808 98.5199 102.677C108.085 102.129 121.624 101.06 123.496 90.2612C123.906 87.105 124.265 84.2097 125.214 81.5491L125.368 79.3581C125.65 75.4194 129.035 72.4719 132.907 72.811L142.574 73.6718C145.395 73.9326 148.062 72.3154 149.241 69.681L150.498 66.8639L128.599 60.9168Z" fill="#FFD1B3"/>
<path d="M230.298 60.9168C233.376 60.0821 236.632 60.6038 239.325 62.3253L257.659 74.0631L274.891 91.3306L267.891 106.564C265.916 104.373 263.506 102.808 260.378 102.677C250.813 102.129 237.273 101.06 235.401 90.2612C234.991 87.105 234.632 84.2097 233.683 81.5491L233.529 79.3581C233.247 75.4194 229.863 72.4719 225.99 72.811L216.323 73.6718C213.502 73.9326 210.836 72.3154 209.656 69.681L208.4 66.8639L230.298 60.9168Z" fill="#FFD1B3"/>
<path d="M181.449 115.171L185.27 113.58C186.244 113.189 186.526 111.937 185.859 111.128L182.09 106.694C180.705 105.051 178.192 105.051 176.782 106.72L173.064 111.154C172.397 111.963 172.679 113.189 173.653 113.606L177.577 115.197C178.833 115.693 180.218 115.693 181.449 115.171Z" fill="#FFAEB3"/>
<path d="M175.654 86.3223V79.4102H177.961V83.9748C177.961 85.279 176.936 86.3223 175.654 86.3223Z" fill="#273535"/>
<path d="M182.936 86.3223V79.4102H180.628V83.9748C180.628 85.279 181.654 86.3223 182.936 86.3223Z" fill="#273535"/>
<path d="M172.064 43.623C172.064 43.623 163.012 57.9692 182.808 63.4468L172.064 43.623Z" fill="#5B7E7E"/>
<path d="M191.039 53.5349C191.039 53.5349 182.321 55.8825 172.064 43.623L191.039 53.5349Z" fill="#5B7E7E"/>
<path d="M173.371 130.587L172.064 128.057C172.397 127.875 180.449 123.701 189.578 125.892L188.937 128.683C180.808 126.727 173.448 130.561 173.371 130.587Z" fill="#FFAEB3"/>
</svg>
