<svg width="25" height="24" viewBox="0 0 25 24" fill="none" xmlns="http://www.w3.org/2000/svg">
<path d="M21.5208 17.5077H3.14583C3.0427 17.5077 2.95833 17.5921 2.95833 17.6952V19.0077C2.95833 19.1108 3.0427 19.1952 3.14583 19.1952H21.5208C21.624 19.1952 21.7083 19.1108 21.7083 19.0077V17.6952C21.7083 17.5921 21.624 17.5077 21.5208 17.5077ZM4.21692 14.5733L5.14739 15.4991C5.22005 15.5718 5.33958 15.5718 5.41223 15.4991L10.913 10.0171L13.2005 12.2975C13.3414 12.4372 13.5318 12.5155 13.7302 12.5155C13.9286 12.5155 14.119 12.4372 14.2599 12.2975L20.4521 6.12879C20.5247 6.05613 20.5247 5.9366 20.4521 5.86394L19.5216 4.93582C19.4864 4.90092 19.4388 4.88135 19.3892 4.88135C19.3396 4.88135 19.292 4.90092 19.2568 4.93582L13.7325 10.4436L11.4427 8.16316C11.3018 8.02353 11.1114 7.94519 10.913 7.94519C10.7146 7.94519 10.5243 8.02353 10.3833 8.16316L4.21692 14.3085C4.19939 14.3258 4.18547 14.3464 4.17597 14.3691C4.16647 14.3919 4.16158 14.4163 4.16158 14.4409C4.16158 14.4655 4.16647 14.4899 4.17597 14.5127C4.18547 14.5354 4.19939 14.556 4.21692 14.5733Z" fill="#E6B760"/>
</svg>
